<?xml version="1.0" encoding="UTF-8" standalone="no"?>
<!DOCTYPE svg PUBLIC "-//W3C//DTD SVG 1.1//EN"
 "http://www.w3.org/Graphics/SVG/1.1/DTD/svg11.dtd">
<!-- Generated by graphviz version 2.38.0 (20140413.2041)
 -->
<!-- Title: %3 Pages: 1 -->
<svg width="164pt" height="332pt"
 viewBox="0.00 0.00 163.50 332.00" xmlns="http://www.w3.org/2000/svg" xmlns:xlink="http://www.w3.org/1999/xlink">
<g id="graph0" class="graph" transform="scale(1 1) rotate(0) translate(4 328)">
<title>%3</title>
<polygon fill="white" stroke="none" points="-4,4 -4,-328 159.5,-328 159.5,4 -4,4"/>
<!-- 2 -->
<g id="node1" class="node"><title>2</title>
<path fill="lightgrey" stroke="black" d="M89.5,-324C89.5,-324 32.5,-324 32.5,-324 26.5,-324 20.5,-318 20.5,-312 20.5,-312 20.5,-300 20.5,-300 20.5,-294 26.5,-288 32.5,-288 32.5,-288 89.5,-288 89.5,-288 95.5,-288 101.5,-294 101.5,-300 101.5,-300 101.5,-312 101.5,-312 101.5,-318 95.5,-324 89.5,-324"/>
<text text-anchor="start" x="30.5879" y="-301.8" font-family="Times,serif" font-size="14.00">Node </text>
<text text-anchor="start" x="67.75" y="-301.8" font-family="Times,serif" font-size="14.00">   </text>
<text text-anchor="start" x="81.75" y="-301.8" font-family="Times,serif" font-size="14.00">   </text>
</g>
<!-- 3 -->
<g id="node2" class="node"><title>3</title>
<path fill="white" stroke="black" d="M74.5,-252C74.5,-252 17.5,-252 17.5,-252 11.5,-252 5.5,-246 5.5,-240 5.5,-240 5.5,-228 5.5,-228 5.5,-222 11.5,-216 17.5,-216 17.5,-216 74.5,-216 74.5,-216 80.5,-216 86.5,-222 86.5,-228 86.5,-228 86.5,-240 86.5,-240 86.5,-246 80.5,-252 74.5,-252"/>
<text text-anchor="start" x="15.5879" y="-229.8" font-family="Times,serif" font-size="14.00">Node </text>
<text text-anchor="start" x="52.75" y="-229.8" font-family="Times,serif" font-size="14.00">   </text>
<text text-anchor="start" x="66.75" y="-229.8" font-family="Times,serif" font-size="14.00">   </text>
</g>
<!-- 2&#45;&gt;3 -->
<g id="edge1" class="edge"><title>2:inp0:c&#45;&gt;3</title>
<path fill="none" stroke="black" d="M70.0373,-297.319C66.7313,-288.748 61.1987,-274.404 56.2743,-261.637"/>
<ellipse fill="black" stroke="black" cx="71.5605" cy="-301.268" rx="4.00001" ry="4.00001"/>
<polygon fill="black" stroke="black" points="59.5385,-260.374 52.6742,-252.303 53.0074,-262.893 59.5385,-260.374"/>
</g>
<!-- 0 -->
<g id="node3" class="node"><title>0</title>
<path fill="lightgrey" stroke="black" d="M143.5,-180C143.5,-180 86.5,-180 86.5,-180 80.5,-180 74.5,-174 74.5,-168 74.5,-168 74.5,-156 74.5,-156 74.5,-150 80.5,-144 86.5,-144 86.5,-144 143.5,-144 143.5,-144 149.5,-144 155.5,-150 155.5,-156 155.5,-156 155.5,-168 155.5,-168 155.5,-174 149.5,-180 143.5,-180"/>
<text text-anchor="start" x="84.5879" y="-157.8" font-family="Times,serif" font-size="14.00">Node </text>
<text text-anchor="start" x="121.75" y="-157.8" font-family="Times,serif" font-size="14.00">   </text>
<text text-anchor="start" x="135.75" y="-157.8" font-family="Times,serif" font-size="14.00">   </text>
</g>
<!-- 2&#45;&gt;0 -->
<g id="edge2" class="edge"><title>2:inp1:c&#45;&gt;0</title>
<path fill="none" stroke="black" d="M88.5703,-297.036C92.5482,-276.863 103.167,-223.013 109.669,-190.034"/>
<ellipse fill="black" stroke="black" cx="87.7739" cy="-301.076" rx="4.00001" ry="4.00001"/>
<polygon fill="black" stroke="black" points="113.122,-190.617 111.623,-180.129 106.254,-189.262 113.122,-190.617"/>
</g>
<!-- 3&#45;&gt;0 -->
<g id="edge4" class="edge"><title>3:inp1:c&#45;&gt;0</title>
<path fill="none" stroke="black" d="M76.2814,-226.03C81.5582,-217.44 90.8274,-202.351 98.9735,-189.09"/>
<ellipse fill="black" stroke="black" cx="74.0937" cy="-229.592" rx="4.00002" ry="4.00002"/>
<polygon fill="black" stroke="black" points="102.119,-190.656 104.371,-180.303 96.1543,-186.992 102.119,-190.656"/>
</g>
<!-- 4 -->
<g id="node4" class="node"><title>4</title>
<path fill="white" stroke="black" d="M44,-180C44,-180 12,-180 12,-180 6,-180 3.55271e-15,-174 3.55271e-15,-168 3.55271e-15,-168 3.55271e-15,-156 3.55271e-15,-156 3.55271e-15,-150 6,-144 12,-144 12,-144 44,-144 44,-144 50,-144 56,-150 56,-156 56,-156 56,-168 56,-168 56,-174 50,-180 44,-180"/>
<text text-anchor="start" x="9.9292" y="-157.8" font-family="Times,serif" font-size="14.00">Leaf 2</text>
</g>
<!-- 3&#45;&gt;4 -->
<g id="edge3" class="edge"><title>3:inp0:c&#45;&gt;4</title>
<path fill="none" stroke="black" d="M54.7082,-225.319C51.0348,-216.748 44.8875,-202.404 39.4159,-189.637"/>
<ellipse fill="black" stroke="black" cx="56.4243" cy="-229.323" rx="4.00001" ry="4.00001"/>
<polygon fill="black" stroke="black" points="42.572,-188.116 35.4157,-180.303 36.138,-190.874 42.572,-188.116"/>
</g>
<!-- 5 -->
<g id="node5" class="node"><title>5</title>
<path fill="white" stroke="black" d="M127.5,-108C127.5,-108 70.5,-108 70.5,-108 64.5,-108 58.5,-102 58.5,-96 58.5,-96 58.5,-84 58.5,-84 58.5,-78 64.5,-72 70.5,-72 70.5,-72 127.5,-72 127.5,-72 133.5,-72 139.5,-78 139.5,-84 139.5,-84 139.5,-96 139.5,-96 139.5,-102 133.5,-108 127.5,-108"/>
<text text-anchor="start" x="68.5879" y="-85.8" font-family="Times,serif" font-size="14.00">Node </text>
<text text-anchor="start" x="105.75" y="-85.8" font-family="Times,serif" font-size="14.00">   </text>
<text text-anchor="start" x="119.75" y="-85.8" font-family="Times,serif" font-size="14.00">   </text>
</g>
<!-- 0&#45;&gt;5 -->
<g id="edge5" class="edge"><title>0:inp0:c&#45;&gt;5</title>
<path fill="none" stroke="black" d="M123.928,-153.319C120.499,-144.748 114.762,-130.404 109.655,-117.637"/>
<ellipse fill="black" stroke="black" cx="125.514" cy="-157.286" rx="4.00001" ry="4.00001"/>
<polygon fill="black" stroke="black" points="112.885,-116.288 105.921,-108.303 106.386,-118.888 112.885,-116.288"/>
</g>
<!-- 1 -->
<g id="node6" class="node"><title>1</title>
<path fill="lightgrey" stroke="black" d="M141,-36C141,-36 109,-36 109,-36 103,-36 97,-30 97,-24 97,-24 97,-12 97,-12 97,-6 103,-0 109,-0 109,-0 141,-0 141,-0 147,-0 153,-6 153,-12 153,-12 153,-24 153,-24 153,-30 147,-36 141,-36"/>
<text text-anchor="start" x="106.929" y="-13.8" font-family="Times,serif" font-size="14.00">Leaf 2</text>
</g>
<!-- 0&#45;&gt;1 -->
<g id="edge6" class="edge"><title>0:inp1:c&#45;&gt;1</title>
<path fill="none" stroke="black" d="M143.298,-153.044C147.482,-137.361 155.351,-101.419 149,-72 147.039,-62.9165 143.388,-53.5168 139.515,-45.2013"/>
<ellipse fill="black" stroke="black" cx="142.11" cy="-157.157" rx="4.00001" ry="4.00001"/>
<polygon fill="black" stroke="black" points="142.538,-43.4197 134.954,-36.0215 136.269,-46.5344 142.538,-43.4197"/>
</g>
<!-- 5&#45;&gt;1 -->
<g id="edge7" class="edge"><title>5:inp0:c&#45;&gt;1</title>
<path fill="none" stroke="black" d="M112.609,-80.953C114.302,-72.488 117.061,-58.6958 119.546,-46.2713"/>
<ellipse fill="black" stroke="black" cx="111.785" cy="-85.0777" rx="4.00001" ry="4.00001"/>
<polygon fill="black" stroke="black" points="123.01,-46.7956 121.539,-36.3034 116.146,-45.4227 123.01,-46.7956"/>
</g>
<!-- 5&#45;&gt;1 -->
<g id="edge8" class="edge"><title>5:inp1:c&#45;&gt;1</title>
<path fill="none" stroke="black" d="M125,-80.953C125,-72.5726 125,-58.9711 125,-46.6445"/>
<ellipse fill="black" stroke="black" cx="125" cy="-85" rx="4" ry="4"/>
<polygon fill="black" stroke="black" points="128.5,-46.3033 125,-36.3034 121.5,-46.3034 128.5,-46.3033"/>
</g>
</g>
</svg>
