<?xml version="1.0" encoding="UTF-8" standalone="no"?>
<!DOCTYPE svg PUBLIC "-//W3C//DTD SVG 1.1//EN"
 "http://www.w3.org/Graphics/SVG/1.1/DTD/svg11.dtd">
<!-- Generated by graphviz version 2.43.0 (0)
 -->
<!-- Title: %3 Pages: 1 -->
<svg width="170pt" height="332pt"
 viewBox="0.00 0.00 170.44 332.00" xmlns="http://www.w3.org/2000/svg" xmlns:xlink="http://www.w3.org/1999/xlink">
<g id="graph0" class="graph" transform="scale(1 1) rotate(0) translate(4 328)">
<title>%3</title>
<polygon fill="white" stroke="transparent" points="-4,4 -4,-328 166.44,-328 166.44,4 -4,4"/>
<!-- 2 -->
<g id="node1" class="node">
<title>2</title>
<path fill="lightgrey" stroke="black" d="M84,-324C84,-324 27,-324 27,-324 21,-324 15,-318 15,-312 15,-312 15,-300 15,-300 15,-294 21,-288 27,-288 27,-288 84,-288 84,-288 90,-288 96,-294 96,-300 96,-300 96,-312 96,-312 96,-318 90,-324 84,-324"/>
<text text-anchor="start" x="25.09" y="-301.8" font-family="Times,serif" font-size="14.00">Node </text>
<text text-anchor="start" x="62.25" y="-301.8" font-family="Times,serif" font-size="14.00">   </text>
<text text-anchor="start" x="76.25" y="-301.8" font-family="Times,serif" font-size="14.00">   </text>
</g>
<!-- 3 -->
<g id="node2" class="node">
<title>3</title>
<path fill="white" stroke="black" d="M69,-252C69,-252 12,-252 12,-252 6,-252 0,-246 0,-240 0,-240 0,-228 0,-228 0,-222 6,-216 12,-216 12,-216 69,-216 69,-216 75,-216 81,-222 81,-228 81,-228 81,-240 81,-240 81,-246 75,-252 69,-252"/>
<text text-anchor="start" x="10.09" y="-229.8" font-family="Times,serif" font-size="14.00">Node </text>
<text text-anchor="start" x="47.25" y="-229.8" font-family="Times,serif" font-size="14.00">   </text>
<text text-anchor="start" x="61.25" y="-229.8" font-family="Times,serif" font-size="14.00">   </text>
</g>
<!-- 2&#45;&gt;3 -->
<g id="edge1" class="edge">
<title>2:c&#45;&gt;3</title>
<path fill="none" stroke="black" d="M64.54,-297.32C61.23,-288.75 55.7,-274.4 50.77,-261.64"/>
<ellipse fill="black" stroke="black" cx="66.06" cy="-301.27" rx="4" ry="4"/>
<polygon fill="black" stroke="black" points="54.04,-260.37 47.17,-252.3 47.51,-262.89 54.04,-260.37"/>
</g>
<!-- 1 -->
<g id="node3" class="node">
<title>1</title>
<path fill="lightgrey" stroke="black" d="M138,-180C138,-180 81,-180 81,-180 75,-180 69,-174 69,-168 69,-168 69,-156 69,-156 69,-150 75,-144 81,-144 81,-144 138,-144 138,-144 144,-144 150,-150 150,-156 150,-156 150,-168 150,-168 150,-174 144,-180 138,-180"/>
<text text-anchor="start" x="79.09" y="-157.8" font-family="Times,serif" font-size="14.00">Node </text>
<text text-anchor="start" x="116.25" y="-157.8" font-family="Times,serif" font-size="14.00">   </text>
<text text-anchor="start" x="130.25" y="-157.8" font-family="Times,serif" font-size="14.00">   </text>
</g>
<!-- 2&#45;&gt;1 -->
<g id="edge2" class="edge">
<title>2:c&#45;&gt;1</title>
<path fill="none" stroke="black" d="M83.07,-297.04C87.05,-276.86 97.67,-223.01 104.17,-190.03"/>
<ellipse fill="black" stroke="black" cx="82.27" cy="-301.08" rx="4" ry="4"/>
<polygon fill="black" stroke="black" points="107.62,-190.62 106.12,-180.13 100.75,-189.26 107.62,-190.62"/>
</g>
<!-- 3&#45;&gt;1 -->
<g id="edge4" class="edge">
<title>3:c&#45;&gt;1</title>
<path fill="none" stroke="black" d="M70.78,-226.03C76.06,-217.44 85.33,-202.35 93.47,-189.09"/>
<ellipse fill="black" stroke="black" cx="68.59" cy="-229.59" rx="4" ry="4"/>
<polygon fill="black" stroke="black" points="96.62,-190.66 98.87,-180.3 90.65,-186.99 96.62,-190.66"/>
</g>
<!-- 0 -->
<g id="node4" class="node">
<title>0</title>
<path fill="lightgrey" stroke="black" d="M144.5,-36C144.5,-36 112.5,-36 112.5,-36 106.5,-36 100.5,-30 100.5,-24 100.5,-24 100.5,-12 100.5,-12 100.5,-6 106.5,0 112.5,0 112.5,0 144.5,0 144.5,0 150.5,0 156.5,-6 156.5,-12 156.5,-12 156.5,-24 156.5,-24 156.5,-30 150.5,-36 144.5,-36"/>
<text text-anchor="start" x="110.43" y="-13.8" font-family="Times,serif" font-size="14.00">Leaf 2</text>
</g>
<!-- 3&#45;&gt;0 -->
<g id="edge3" class="edge">
<title>3:c&#45;&gt;0</title>
<path fill="none" stroke="black" d="M50.7,-225.03C45.61,-200.51 33.15,-124.65 60.5,-72 67.57,-58.4 79.85,-47.2 92.06,-38.66"/>
<ellipse fill="black" stroke="black" cx="51.62" cy="-229.1" rx="4" ry="4"/>
<polygon fill="black" stroke="black" points="93.99,-41.58 100.43,-33.17 90.15,-35.73 93.99,-41.58"/>
</g>
<!-- 1&#45;&gt;0 -->
<g id="edge6" class="edge">
<title>1:c&#45;&gt;0</title>
<path fill="none" stroke="black" d="M139.77,-154.13C145.59,-144.33 155.71,-125.57 159.5,-108 162.88,-92.36 163.68,-87.44 159.5,-72 156.92,-62.48 152.16,-52.92 147.12,-44.59"/>
<ellipse fill="black" stroke="black" cx="137.61" cy="-157.6" rx="4" ry="4"/>
<polygon fill="black" stroke="black" points="150.01,-42.6 141.65,-36.09 144.12,-46.39 150.01,-42.6"/>
</g>
<!-- 4 -->
<g id="node5" class="node">
<title>4</title>
<path fill="white" stroke="black" d="M138,-108C138,-108 81,-108 81,-108 75,-108 69,-102 69,-96 69,-96 69,-84 69,-84 69,-78 75,-72 81,-72 81,-72 138,-72 138,-72 144,-72 150,-78 150,-84 150,-84 150,-96 150,-96 150,-102 144,-108 138,-108"/>
<text text-anchor="start" x="79.09" y="-85.8" font-family="Times,serif" font-size="14.00">Node </text>
<text text-anchor="start" x="116.25" y="-85.8" font-family="Times,serif" font-size="14.00">   </text>
<text text-anchor="start" x="130.25" y="-85.8" font-family="Times,serif" font-size="14.00">   </text>
</g>
<!-- 1&#45;&gt;4 -->
<g id="edge5" class="edge">
<title>1:c&#45;&gt;4</title>
<path fill="none" stroke="black" d="M120.12,-152.95C118.67,-144.49 116.3,-130.7 114.18,-118.27"/>
<ellipse fill="black" stroke="black" cx="120.82" cy="-157.06" rx="4" ry="4"/>
<polygon fill="black" stroke="black" points="117.61,-117.57 112.47,-108.3 110.71,-118.75 117.61,-117.57"/>
</g>
<!-- 4&#45;&gt;0 -->
<g id="edge7" class="edge">
<title>4:c&#45;&gt;0</title>
<path fill="none" stroke="black" d="M122.3,-80.95C123.15,-72.49 124.53,-58.7 125.77,-46.27"/>
<ellipse fill="black" stroke="black" cx="121.9" cy="-85.02" rx="4" ry="4"/>
<polygon fill="black" stroke="black" points="129.26,-46.6 126.77,-36.3 122.29,-45.91 129.26,-46.6"/>
</g>
<!-- 4&#45;&gt;0 -->
<g id="edge8" class="edge">
<title>4:c&#45;&gt;0</title>
<path fill="none" stroke="black" d="M134.7,-80.95C133.85,-72.49 132.47,-58.7 131.23,-46.27"/>
<ellipse fill="black" stroke="black" cx="135.1" cy="-85.02" rx="4" ry="4"/>
<polygon fill="black" stroke="black" points="134.71,-45.91 130.23,-36.3 127.74,-46.6 134.71,-45.91"/>
</g>
</g>
</svg>
