<?xml version="1.0" encoding="UTF-8" standalone="no"?>
<!DOCTYPE svg PUBLIC "-//W3C//DTD SVG 1.1//EN"
 "http://www.w3.org/Graphics/SVG/1.1/DTD/svg11.dtd">
<!-- Generated by graphviz version 2.43.0 (0)
 -->
<!-- Title: %3 Pages: 1 -->
<svg width="164pt" height="332pt"
 viewBox="0.00 0.00 163.50 332.00" xmlns="http://www.w3.org/2000/svg" xmlns:xlink="http://www.w3.org/1999/xlink">
<g id="graph0" class="graph" transform="scale(1 1) rotate(0) translate(4 328)">
<title>%3</title>
<polygon fill="white" stroke="transparent" points="-4,4 -4,-328 159.5,-328 159.5,4 -4,4"/>
<!-- 2 -->
<g id="node1" class="node">
<title>2</title>
<path fill="lightgrey" stroke="black" d="M89.5,-324C89.5,-324 32.5,-324 32.5,-324 26.5,-324 20.5,-318 20.5,-312 20.5,-312 20.5,-300 20.5,-300 20.5,-294 26.5,-288 32.5,-288 32.5,-288 89.5,-288 89.5,-288 95.5,-288 101.5,-294 101.5,-300 101.5,-300 101.5,-312 101.5,-312 101.5,-318 95.5,-324 89.5,-324"/>
<text text-anchor="start" x="30.59" y="-301.8" font-family="Times,serif" font-size="14.00">Node </text>
<text text-anchor="start" x="67.75" y="-301.8" font-family="Times,serif" font-size="14.00">   </text>
<text text-anchor="start" x="81.75" y="-301.8" font-family="Times,serif" font-size="14.00">   </text>
</g>
<!-- 3 -->
<g id="node2" class="node">
<title>3</title>
<path fill="white" stroke="black" d="M74.5,-252C74.5,-252 17.5,-252 17.5,-252 11.5,-252 5.5,-246 5.5,-240 5.5,-240 5.5,-228 5.5,-228 5.5,-222 11.5,-216 17.5,-216 17.5,-216 74.5,-216 74.5,-216 80.5,-216 86.5,-222 86.5,-228 86.5,-228 86.5,-240 86.5,-240 86.5,-246 80.5,-252 74.5,-252"/>
<text text-anchor="start" x="15.59" y="-229.8" font-family="Times,serif" font-size="14.00">Node </text>
<text text-anchor="start" x="52.75" y="-229.8" font-family="Times,serif" font-size="14.00">   </text>
<text text-anchor="start" x="66.75" y="-229.8" font-family="Times,serif" font-size="14.00">   </text>
</g>
<!-- 2&#45;&gt;3 -->
<g id="edge1" class="edge">
<title>2:c&#45;&gt;3</title>
<path fill="none" stroke="black" d="M70.04,-297.32C66.73,-288.75 61.2,-274.4 56.27,-261.64"/>
<ellipse fill="black" stroke="black" cx="71.56" cy="-301.27" rx="4" ry="4"/>
<polygon fill="black" stroke="black" points="59.54,-260.37 52.67,-252.3 53.01,-262.89 59.54,-260.37"/>
</g>
<!-- 0 -->
<g id="node3" class="node">
<title>0</title>
<path fill="lightgrey" stroke="black" d="M143.5,-180C143.5,-180 86.5,-180 86.5,-180 80.5,-180 74.5,-174 74.5,-168 74.5,-168 74.5,-156 74.5,-156 74.5,-150 80.5,-144 86.5,-144 86.5,-144 143.5,-144 143.5,-144 149.5,-144 155.5,-150 155.5,-156 155.5,-156 155.5,-168 155.5,-168 155.5,-174 149.5,-180 143.5,-180"/>
<text text-anchor="start" x="84.59" y="-157.8" font-family="Times,serif" font-size="14.00">Node </text>
<text text-anchor="start" x="121.75" y="-157.8" font-family="Times,serif" font-size="14.00">   </text>
<text text-anchor="start" x="135.75" y="-157.8" font-family="Times,serif" font-size="14.00">   </text>
</g>
<!-- 2&#45;&gt;0 -->
<g id="edge2" class="edge">
<title>2:c&#45;&gt;0</title>
<path fill="none" stroke="black" d="M88.57,-297.04C92.55,-276.86 103.17,-223.01 109.67,-190.03"/>
<ellipse fill="black" stroke="black" cx="87.77" cy="-301.08" rx="4" ry="4"/>
<polygon fill="black" stroke="black" points="113.12,-190.62 111.62,-180.13 106.25,-189.26 113.12,-190.62"/>
</g>
<!-- 3&#45;&gt;0 -->
<g id="edge4" class="edge">
<title>3:c&#45;&gt;0</title>
<path fill="none" stroke="black" d="M76.28,-226.03C81.56,-217.44 90.83,-202.35 98.97,-189.09"/>
<ellipse fill="black" stroke="black" cx="74.09" cy="-229.59" rx="4" ry="4"/>
<polygon fill="black" stroke="black" points="102.12,-190.66 104.37,-180.3 96.15,-186.99 102.12,-190.66"/>
</g>
<!-- 4 -->
<g id="node4" class="node">
<title>4</title>
<path fill="white" stroke="black" d="M44,-180C44,-180 12,-180 12,-180 6,-180 0,-174 0,-168 0,-168 0,-156 0,-156 0,-150 6,-144 12,-144 12,-144 44,-144 44,-144 50,-144 56,-150 56,-156 56,-156 56,-168 56,-168 56,-174 50,-180 44,-180"/>
<text text-anchor="start" x="9.93" y="-157.8" font-family="Times,serif" font-size="14.00">Leaf 2</text>
</g>
<!-- 3&#45;&gt;4 -->
<g id="edge3" class="edge">
<title>3:c&#45;&gt;4</title>
<path fill="none" stroke="black" d="M54.71,-225.32C51.03,-216.75 44.89,-202.4 39.42,-189.64"/>
<ellipse fill="black" stroke="black" cx="56.42" cy="-229.32" rx="4" ry="4"/>
<polygon fill="black" stroke="black" points="42.57,-188.12 35.42,-180.3 36.14,-190.87 42.57,-188.12"/>
</g>
<!-- 5 -->
<g id="node5" class="node">
<title>5</title>
<path fill="white" stroke="black" d="M128.5,-108C128.5,-108 71.5,-108 71.5,-108 65.5,-108 59.5,-102 59.5,-96 59.5,-96 59.5,-84 59.5,-84 59.5,-78 65.5,-72 71.5,-72 71.5,-72 128.5,-72 128.5,-72 134.5,-72 140.5,-78 140.5,-84 140.5,-84 140.5,-96 140.5,-96 140.5,-102 134.5,-108 128.5,-108"/>
<text text-anchor="start" x="69.59" y="-85.8" font-family="Times,serif" font-size="14.00">Node </text>
<text text-anchor="start" x="106.75" y="-85.8" font-family="Times,serif" font-size="14.00">   </text>
<text text-anchor="start" x="120.75" y="-85.8" font-family="Times,serif" font-size="14.00">   </text>
</g>
<!-- 0&#45;&gt;5 -->
<g id="edge5" class="edge">
<title>0:c&#45;&gt;5</title>
<path fill="none" stroke="black" d="M124.04,-153.32C120.73,-144.75 115.2,-130.4 110.27,-117.64"/>
<ellipse fill="black" stroke="black" cx="125.56" cy="-157.27" rx="4" ry="4"/>
<polygon fill="black" stroke="black" points="113.54,-116.37 106.67,-108.3 107.01,-118.89 113.54,-116.37"/>
</g>
<!-- 1 -->
<g id="node6" class="node">
<title>1</title>
<path fill="lightgrey" stroke="black" d="M142,-36C142,-36 110,-36 110,-36 104,-36 98,-30 98,-24 98,-24 98,-12 98,-12 98,-6 104,0 110,0 110,0 142,0 142,0 148,0 154,-6 154,-12 154,-12 154,-24 154,-24 154,-30 148,-36 142,-36"/>
<text text-anchor="start" x="107.93" y="-13.8" font-family="Times,serif" font-size="14.00">Leaf 2</text>
</g>
<!-- 0&#45;&gt;1 -->
<g id="edge6" class="edge">
<title>0:c&#45;&gt;1</title>
<path fill="none" stroke="black" d="M143.26,-153.05C147.37,-137.38 155.12,-101.47 149,-72 147.12,-62.96 143.63,-53.58 139.91,-45.26"/>
<ellipse fill="black" stroke="black" cx="142.09" cy="-157.15" rx="4" ry="4"/>
<polygon fill="black" stroke="black" points="143,-43.6 135.54,-36.07 136.68,-46.61 143,-43.6"/>
</g>
<!-- 5&#45;&gt;1 -->
<g id="edge7" class="edge">
<title>5:c&#45;&gt;1</title>
<path fill="none" stroke="black" d="M113.61,-80.95C115.3,-72.49 118.06,-58.7 120.55,-46.27"/>
<ellipse fill="black" stroke="black" cx="112.78" cy="-85.08" rx="4" ry="4"/>
<polygon fill="black" stroke="black" points="124.01,-46.8 122.54,-36.3 117.15,-45.42 124.01,-46.8"/>
</g>
<!-- 5&#45;&gt;1 -->
<g id="edge8" class="edge">
<title>5:c&#45;&gt;1</title>
<path fill="none" stroke="black" d="M126,-80.95C126,-72.57 126,-58.97 126,-46.64"/>
<ellipse fill="black" stroke="black" cx="126" cy="-85" rx="4" ry="4"/>
<polygon fill="black" stroke="black" points="129.5,-46.3 126,-36.3 122.5,-46.3 129.5,-46.3"/>
</g>
</g>
</svg>
