<?xml version="1.0" encoding="UTF-8" standalone="no"?>
<!DOCTYPE svg PUBLIC "-//W3C//DTD SVG 1.1//EN"
 "http://www.w3.org/Graphics/SVG/1.1/DTD/svg11.dtd">
<!-- Generated by graphviz version 2.38.0 (20140413.2041)
 -->
<!-- Title: %3 Pages: 1 -->
<svg width="170pt" height="332pt"
 viewBox="0.00 0.00 170.44 332.00" xmlns="http://www.w3.org/2000/svg" xmlns:xlink="http://www.w3.org/1999/xlink">
<g id="graph0" class="graph" transform="scale(1 1) rotate(0) translate(4 328)">
<title>%3</title>
<polygon fill="white" stroke="none" points="-4,4 -4,-328 166.436,-328 166.436,4 -4,4"/>
<!-- 2 -->
<g id="node1" class="node"><title>2</title>
<path fill="lightgrey" stroke="black" d="M84,-324C84,-324 27,-324 27,-324 21,-324 15,-318 15,-312 15,-312 15,-300 15,-300 15,-294 21,-288 27,-288 27,-288 84,-288 84,-288 90,-288 96,-294 96,-300 96,-300 96,-312 96,-312 96,-318 90,-324 84,-324"/>
<text text-anchor="start" x="25.0879" y="-301.8" font-family="Times,serif" font-size="14.00">Node </text>
<text text-anchor="start" x="62.25" y="-301.8" font-family="Times,serif" font-size="14.00">   </text>
<text text-anchor="start" x="76.25" y="-301.8" font-family="Times,serif" font-size="14.00">   </text>
</g>
<!-- 3 -->
<g id="node2" class="node"><title>3</title>
<path fill="white" stroke="black" d="M69,-252C69,-252 12,-252 12,-252 6,-252 0,-246 0,-240 0,-240 0,-228 0,-228 0,-222 6,-216 12,-216 12,-216 69,-216 69,-216 75,-216 81,-222 81,-228 81,-228 81,-240 81,-240 81,-246 75,-252 69,-252"/>
<text text-anchor="start" x="10.0879" y="-229.8" font-family="Times,serif" font-size="14.00">Node </text>
<text text-anchor="start" x="47.25" y="-229.8" font-family="Times,serif" font-size="14.00">   </text>
<text text-anchor="start" x="61.25" y="-229.8" font-family="Times,serif" font-size="14.00">   </text>
</g>
<!-- 2&#45;&gt;3 -->
<g id="edge1" class="edge"><title>2:inp0:c&#45;&gt;3</title>
<path fill="none" stroke="black" d="M64.5373,-297.319C61.2313,-288.748 55.6987,-274.404 50.7743,-261.637"/>
<ellipse fill="black" stroke="black" cx="66.0605" cy="-301.268" rx="4.00001" ry="4.00001"/>
<polygon fill="black" stroke="black" points="54.0385,-260.374 47.1742,-252.303 47.5074,-262.893 54.0385,-260.374"/>
</g>
<!-- 1 -->
<g id="node3" class="node"><title>1</title>
<path fill="lightgrey" stroke="black" d="M138,-180C138,-180 81,-180 81,-180 75,-180 69,-174 69,-168 69,-168 69,-156 69,-156 69,-150 75,-144 81,-144 81,-144 138,-144 138,-144 144,-144 150,-150 150,-156 150,-156 150,-168 150,-168 150,-174 144,-180 138,-180"/>
<text text-anchor="start" x="79.0879" y="-157.8" font-family="Times,serif" font-size="14.00">Node </text>
<text text-anchor="start" x="116.25" y="-157.8" font-family="Times,serif" font-size="14.00">   </text>
<text text-anchor="start" x="130.25" y="-157.8" font-family="Times,serif" font-size="14.00">   </text>
</g>
<!-- 2&#45;&gt;1 -->
<g id="edge2" class="edge"><title>2:inp1:c&#45;&gt;1</title>
<path fill="none" stroke="black" d="M83.0703,-297.036C87.0482,-276.863 97.6665,-223.013 104.169,-190.034"/>
<ellipse fill="black" stroke="black" cx="82.2739" cy="-301.076" rx="4.00001" ry="4.00001"/>
<polygon fill="black" stroke="black" points="107.622,-190.617 106.123,-180.129 100.754,-189.262 107.622,-190.617"/>
</g>
<!-- 3&#45;&gt;1 -->
<g id="edge4" class="edge"><title>3:inp1:c&#45;&gt;1</title>
<path fill="none" stroke="black" d="M70.7814,-226.03C76.0582,-217.44 85.3274,-202.351 93.4735,-189.09"/>
<ellipse fill="black" stroke="black" cx="68.5937" cy="-229.592" rx="4.00002" ry="4.00002"/>
<polygon fill="black" stroke="black" points="96.6188,-190.656 98.8708,-180.303 90.6543,-186.992 96.6188,-190.656"/>
</g>
<!-- 0 -->
<g id="node4" class="node"><title>0</title>
<path fill="lightgrey" stroke="black" d="M144.5,-36C144.5,-36 112.5,-36 112.5,-36 106.5,-36 100.5,-30 100.5,-24 100.5,-24 100.5,-12 100.5,-12 100.5,-6 106.5,-0 112.5,-0 112.5,-0 144.5,-0 144.5,-0 150.5,-0 156.5,-6 156.5,-12 156.5,-12 156.5,-24 156.5,-24 156.5,-30 150.5,-36 144.5,-36"/>
<text text-anchor="start" x="110.429" y="-13.8" font-family="Times,serif" font-size="14.00">Leaf 2</text>
</g>
<!-- 3&#45;&gt;0 -->
<g id="edge3" class="edge"><title>3:inp0:c&#45;&gt;0</title>
<path fill="none" stroke="black" d="M50.6237,-225.03C45.2911,-200.501 32.1302,-124.62 59.5,-72 66.6924,-58.172 79.2971,-46.8806 91.7824,-38.3275"/>
<ellipse fill="black" stroke="black" cx="51.5833" cy="-229.106" rx="4.00001" ry="4.00001"/>
<polygon fill="black" stroke="black" points="93.8066,-41.1874 100.339,-32.846 90.0306,-35.2931 93.8066,-41.1874"/>
</g>
<!-- 1&#45;&gt;0 -->
<g id="edge6" class="edge"><title>1:inp1:c&#45;&gt;0</title>
<path fill="none" stroke="black" d="M139.77,-154.132C145.585,-144.333 155.706,-125.575 159.5,-108 162.876,-92.3602 163.685,-87.4431 159.5,-72 156.92,-62.4797 152.155,-52.9174 147.122,-44.5872"/>
<ellipse fill="black" stroke="black" cx="137.612" cy="-157.603" rx="4.00002" ry="4.00002"/>
<polygon fill="black" stroke="black" points="150.006,-42.6006 141.646,-36.092 144.122,-46.3933 150.006,-42.6006"/>
</g>
<!-- 4 -->
<g id="node5" class="node"><title>4</title>
<path fill="white" stroke="black" d="M138,-108C138,-108 81,-108 81,-108 75,-108 69,-102 69,-96 69,-96 69,-84 69,-84 69,-78 75,-72 81,-72 81,-72 138,-72 138,-72 144,-72 150,-78 150,-84 150,-84 150,-96 150,-96 150,-102 144,-108 138,-108"/>
<text text-anchor="start" x="79.0879" y="-85.8" font-family="Times,serif" font-size="14.00">Node </text>
<text text-anchor="start" x="116.25" y="-85.8" font-family="Times,serif" font-size="14.00">   </text>
<text text-anchor="start" x="130.25" y="-85.8" font-family="Times,serif" font-size="14.00">   </text>
</g>
<!-- 1&#45;&gt;4 -->
<g id="edge5" class="edge"><title>1:inp0:c&#45;&gt;4</title>
<path fill="none" stroke="black" d="M120.121,-152.953C118.669,-144.488 116.305,-130.696 114.175,-118.271"/>
<ellipse fill="black" stroke="black" cx="120.824" cy="-157.058" rx="4.00001" ry="4.00001"/>
<polygon fill="black" stroke="black" points="117.606,-117.568 112.466,-108.303 110.706,-118.751 117.606,-117.568"/>
</g>
<!-- 4&#45;&gt;0 -->
<g id="edge7" class="edge"><title>4:inp0:c&#45;&gt;0</title>
<path fill="none" stroke="black" d="M122.305,-80.953C123.151,-72.488 124.53,-58.6958 125.773,-46.2713"/>
<ellipse fill="black" stroke="black" cx="121.898" cy="-85.0199" rx="4" ry="4"/>
<polygon fill="black" stroke="black" points="129.257,-46.602 126.77,-36.3034 122.292,-45.9055 129.257,-46.602"/>
</g>
<!-- 4&#45;&gt;0 -->
<g id="edge8" class="edge"><title>4:inp1:c&#45;&gt;0</title>
<path fill="none" stroke="black" d="M134.695,-80.953C133.849,-72.488 132.47,-58.6958 131.227,-46.2713"/>
<ellipse fill="black" stroke="black" cx="135.102" cy="-85.0199" rx="4" ry="4"/>
<polygon fill="black" stroke="black" points="134.708,-45.9055 130.23,-36.3034 127.743,-46.602 134.708,-45.9055"/>
</g>
</g>
</svg>
