<?xml version="1.0" encoding="UTF-8"?>
<!DOCTYPE svg PUBLIC "-//W3C//DTD SVG 1.1//EN"
    "http://www.w3.org/Graphics/SVG/1.1/DTD/svg11.dtd"><svg xmlns="http://www.w3.org/2000/svg" height="105.0417" stroke-opacity="1" viewBox="0 0 400 105" font-size="1" width="400.0000" xmlns:xlink="http://www.w3.org/1999/xlink" stroke="rgb(0,0,0)" version="1.1"><defs></defs><g stroke-linejoin="miter" stroke-opacity="1.0" fill-opacity="0.0" stroke="rgb(0,0,0)" stroke-width="0.8199186942393437" fill="rgb(0,0,0)" stroke-linecap="butt" stroke-miterlimit="10.0"><path d="M 400.0000,65.1359 l -45.4844,-52.5208 l -7.8781,27.2906 l 45.4844,52.5208 Z"/></g><g stroke-linejoin="miter" stroke-opacity="1.0" fill-opacity="0.0" stroke="rgb(0,0,0)" stroke-width="0.8199186942393437" fill="rgb(0,0,0)" stroke-linecap="butt" stroke-miterlimit="10.0"><path d="M 346.6375,52.5208 c 0.0000,-29.0065 -23.5144,-52.5208 -52.5208 -52.5208c -29.0065,-0.0000 -52.5208,23.5144 -52.5208 52.5208c -0.0000,29.0065 23.5144,52.5208 52.5208 52.5208c 29.0065,0.0000 52.5208,-23.5144 52.5208 -52.5208Z"/></g><g stroke-linejoin="miter" stroke-opacity="1.0" fill-opacity="0.0" stroke="rgb(0,0,0)" stroke-width="0.8199186942393437" fill="rgb(0,0,0)" stroke-linecap="butt" stroke-miterlimit="10.0"><path d="M 136.5542,105.0417 l -0.0000,-105.0417 h -31.5125 l -0.0000,105.0417 Z"/></g><g stroke-linejoin="miter" stroke-opacity="1.0" fill-opacity="0.0" stroke="rgb(0,0,0)" stroke-width="0.8199186942393437" fill="rgb(0,0,0)" stroke-linecap="butt" stroke-miterlimit="10.0"><path d="M 105.0417,52.5208 c 0.0000,-29.0065 -23.5144,-52.5208 -52.5208 -52.5208c -29.0065,-0.0000 -52.5208,23.5144 -52.5208 52.5208c -0.0000,29.0065 23.5144,52.5208 52.5208 52.5208c 29.0065,0.0000 52.5208,-23.5144 52.5208 -52.5208Z"/></g></svg>